<svg xmlns="http://www.w3.org/2000/svg" viewBox="0 0 800 500" width="800" height="500">
  <rect width="800" height="500" fill="#eff6ff"/>
  <rect x="100" y="60" width="600" height="360" rx="8" fill="#fff" stroke="#bfdbfe" stroke-width="2"/>
  <rect x="100" y="60" width="600" height="35" rx="8" fill="#2563eb"/>
  <text x="400" y="83" font-family="Arial" font-size="14" fill="#fff" text-anchor="middle">Java GUI Applikation</text>
  <rect x="120" y="110" width="560" height="30" rx="4" fill="#f1f5f9"/>
  <text x="140" y="130" font-family="Arial" font-size="12" fill="#475569">Datei  Bearbeiten  Ansicht  Hilfe</text>
  <rect x="120" y="155" width="180" height="230" rx="4" fill="#f8fafc" stroke="#e2e8f0" stroke-width="1"/>
  <rect x="130" y="165" width="160" height="25" rx="3" fill="#dbeafe"/>
  <rect x="130" y="198" width="160" height="25" rx="3" fill="#fff"/>
  <rect x="130" y="231" width="160" height="25" rx="3" fill="#fff"/>
  <rect x="315" y="155" width="365" height="230" rx="4" fill="#f8fafc" stroke="#e2e8f0" stroke-width="1"/>
  <rect x="325" y="165" width="345" height="160" rx="3" fill="#fff"/>
  <rect x="325" y="340" width="345" height="35" rx="3" fill="#2563eb"/>
  <text x="497" y="363" font-family="Arial" font-size="13" fill="#fff" text-anchor="middle">Ausführen</text>
  <text x="400" y="440" font-family="Arial" font-size="18" fill="#2563eb" text-anchor="middle">Java GUI Projekt</text>
</svg>
