<svg xmlns="http://www.w3.org/2000/svg" viewBox="0 0 800 500" width="800" height="500">
  <rect width="800" height="500" fill="#f0fdf4"/>
  <rect x="300" y="50" width="200" height="70" rx="8" fill="#166534"/>
  <text x="400" y="80" font-family="Arial" font-size="13" fill="#fff" text-anchor="middle">Domain</text>
  <text x="400" y="100" font-family="Arial" font-size="11" fill="#bbf7d0" text-anchor="middle">gbssg.local</text>
  <line x1="250" y1="120" x2="175" y2="200" stroke="#16a34a" stroke-width="2"/>
  <line x1="400" y1="120" x2="400" y2="200" stroke="#16a34a" stroke-width="2"/>
  <line x1="550" y1="120" x2="625" y2="200" stroke="#16a34a" stroke-width="2"/>
  <rect x="100" y="200" width="150" height="55" rx="6" fill="#15803d"/>
  <text x="175" y="223" font-family="Arial" font-size="12" fill="#fff" text-anchor="middle">OU: Schüler</text>
  <rect x="325" y="200" width="150" height="55" rx="6" fill="#15803d"/>
  <text x="400" y="223" font-family="Arial" font-size="12" fill="#fff" text-anchor="middle">OU: Lehrer</text>
  <rect x="550" y="200" width="150" height="55" rx="6" fill="#15803d"/>
  <text x="625" y="223" font-family="Arial" font-size="12" fill="#fff" text-anchor="middle">OU: IT-Admin</text>
  <circle cx="135" cy="330" r="20" fill="#4ade80"/>
  <circle cx="175" cy="330" r="20" fill="#4ade80"/>
  <circle cx="215" cy="330" r="20" fill="#4ade80"/>
  <circle cx="360" cy="330" r="20" fill="#4ade80"/>
  <circle cx="400" cy="330" r="20" fill="#4ade80"/>
  <circle cx="590" cy="330" r="20" fill="#4ade80"/>
  <circle cx="630" cy="330" r="20" fill="#4ade80"/>
  <line x1="175" y1="255" x2="135" y2="310" stroke="#16a34a" stroke-width="1.5"/>
  <line x1="175" y1="255" x2="175" y2="310" stroke="#16a34a" stroke-width="1.5"/>
  <line x1="175" y1="255" x2="215" y2="310" stroke="#16a34a" stroke-width="1.5"/>
  <line x1="400" y1="255" x2="360" y2="310" stroke="#16a34a" stroke-width="1.5"/>
  <line x1="400" y1="255" x2="400" y2="310" stroke="#16a34a" stroke-width="1.5"/>
  <line x1="625" y1="255" x2="590" y2="310" stroke="#16a34a" stroke-width="1.5"/>
  <line x1="625" y1="255" x2="630" y2="310" stroke="#16a34a" stroke-width="1.5"/>
  <text x="400" y="430" font-family="Arial" font-size="18" fill="#166534" text-anchor="middle">Active Directory Projekt</text>
</svg>
