<svg xmlns="http://www.w3.org/2000/svg" viewBox="0 0 800 500" width="800" height="500">
  <rect width="800" height="500" fill="#f8fafc"/>
  <rect x="150" y="80" width="500" height="70" rx="6" fill="#1e293b"/>
  <circle cx="590" cy="115" r="8" fill="#22c55e"/>
  <circle cx="570" cy="115" r="8" fill="#eab308"/>
  <rect x="170" y="100" width="340" height="10" rx="3" fill="#334155"/>
  <rect x="170" y="118" width="200" height="6" rx="3" fill="#475569"/>
  <rect x="150" y="165" width="500" height="70" rx="6" fill="#1e293b"/>
  <circle cx="590" cy="200" r="8" fill="#22c55e"/>
  <circle cx="570" cy="200" r="8" fill="#22c55e"/>
  <rect x="170" y="185" width="340" height="10" rx="3" fill="#334155"/>
  <rect x="170" y="203" width="240" height="6" rx="3" fill="#475569"/>
  <rect x="150" y="250" width="500" height="70" rx="6" fill="#1e293b"/>
  <circle cx="590" cy="285" r="8" fill="#ef4444"/>
  <circle cx="570" cy="285" r="8" fill="#22c55e"/>
  <rect x="170" y="270" width="340" height="10" rx="3" fill="#334155"/>
  <rect x="170" y="288" width="180" height="6" rx="3" fill="#475569"/>
  <text x="400" y="390" font-family="Arial" font-size="18" fill="#475569" text-anchor="middle">Server aufsetzen</text>
</svg>
